<svg width="714" height="280" viewBox="0 0 714 280" fill="none" xmlns="http://www.w3.org/2000/svg">
<g clip-path="url(#clip0_195_2)">
<path d="M178.812 200H158.562V163.5H121.438V200H101.25V110.375H121.438V146.125H158.562V110.375H178.812V200ZM227.938 201.562C217.271 201.562 208.875 198.583 202.75 192.625C196.667 186.625 193.625 178.5 193.625 168.25C193.625 157.667 196.792 149.396 203.125 143.438C209.458 137.438 218.021 134.438 228.812 134.438C239.438 134.438 247.771 137.438 253.812 143.438C259.854 149.396 262.875 157.292 262.875 167.125C262.875 177.75 259.75 186.146 253.5 192.312C247.292 198.479 238.771 201.562 227.938 201.562ZM228.438 149.562C223.771 149.562 220.146 151.167 217.562 154.375C214.979 157.583 213.688 162.125 213.688 168C213.688 180.292 218.646 186.438 228.562 186.438C238.021 186.438 242.75 180.125 242.75 167.5C242.75 155.542 237.979 149.562 228.438 149.562ZM306.188 201.562C295.521 201.562 287.125 198.583 281 192.625C274.917 186.625 271.875 178.5 271.875 168.25C271.875 157.667 275.042 149.396 281.375 143.438C287.708 137.438 296.271 134.438 307.062 134.438C317.688 134.438 326.021 137.438 332.062 143.438C338.104 149.396 341.125 157.292 341.125 167.125C341.125 177.75 338 186.146 331.75 192.312C325.542 198.479 317.021 201.562 306.188 201.562ZM306.688 149.562C302.021 149.562 298.396 151.167 295.812 154.375C293.229 157.583 291.938 162.125 291.938 168C291.938 180.292 296.896 186.438 306.812 186.438C316.271 186.438 321 180.125 321 167.5C321 155.542 316.229 149.562 306.688 149.562ZM384.438 201.562C373.771 201.562 365.375 198.583 359.25 192.625C353.167 186.625 350.125 178.5 350.125 168.25C350.125 157.667 353.292 149.396 359.625 143.438C365.958 137.438 374.521 134.438 385.312 134.438C395.938 134.438 404.271 137.438 410.312 143.438C416.354 149.396 419.375 157.292 419.375 167.125C419.375 177.75 416.25 186.146 410 192.312C403.792 198.479 395.271 201.562 384.438 201.562ZM384.938 149.562C380.271 149.562 376.646 151.167 374.062 154.375C371.479 157.583 370.188 162.125 370.188 168C370.188 180.292 375.146 186.438 385.062 186.438C394.521 186.438 399.25 180.125 399.25 167.5C399.25 155.542 394.479 149.562 384.938 149.562ZM533.812 200H514.125V163.5C514.125 154.208 510.708 149.562 503.875 149.562C500.625 149.562 497.979 150.958 495.938 153.75C493.896 156.542 492.875 160.021 492.875 164.188V200H473.125V163.125C473.125 154.083 469.771 149.562 463.062 149.562C459.688 149.562 456.979 150.896 454.938 153.562C452.938 156.229 451.938 159.854 451.938 164.438V200H432.188V136H451.938V146H452.188C454.229 142.583 457.083 139.812 460.75 137.688C464.458 135.521 468.5 134.438 472.875 134.438C481.917 134.438 488.104 138.417 491.438 146.375C496.312 138.417 503.479 134.438 512.938 134.438C526.854 134.438 533.812 143.021 533.812 160.188V200ZM610.375 136L584.375 205.125C578.125 221.75 568.708 230.062 556.125 230.062C551.333 230.062 547.396 229.521 544.312 228.438V212.688C546.938 214.229 549.792 215 552.875 215C557.958 215 561.5 212.604 563.5 207.812L566.875 199.875L540.875 136H562.75L574.688 174.938C575.438 177.354 576.021 180.208 576.438 183.5H576.688C577.062 181.083 577.75 178.271 578.75 175.062L590.812 136H610.375Z" fill="#122435"/>
<path d="M613.154 109.097C610.485 111.024 607.687 111.811 604.759 111.457C601.832 111.104 599.527 109.762 597.844 107.431C596.063 104.965 595.503 102.338 596.162 99.5491C596.83 96.7024 598.516 94.3035 601.218 92.3523C603.955 90.3767 606.758 89.5608 609.627 89.9047C612.505 90.1904 614.811 91.5325 616.542 93.931C618.323 96.3971 618.912 99.0291 618.312 101.827C617.711 104.625 615.991 107.048 613.154 109.097ZM637.451 126.629L648.515 157.648L636.049 166.648L622.706 137.275L637.451 126.629ZM678.766 141.357L665.793 150.723C666.618 130.084 661.116 111.573 649.287 95.1888C637.556 78.9396 621.594 67.7227 601.403 61.5381L614.477 52.0991C634.813 57.2028 651.078 68.2002 663.273 85.0913C675.834 102.489 680.998 121.244 678.766 141.357Z" fill="#FF0000"/>
</g>
<defs>
<clipPath id="clip0_195_2">
<rect width="714" height="280" fill="white"/>
</clipPath>
</defs>
</svg>
