<svg width="591" height="198" viewBox="0 0 591 198" fill="none" xmlns="http://www.w3.org/2000/svg">
<g clip-path="url(#clip0_195_2)">
<path d="M78.8125 165H58.5625V128.5H21.4375V165H1.25V75.375H21.4375V111.125H58.5625V75.375H78.8125V165ZM127.938 166.562C117.271 166.562 108.875 163.583 102.75 157.625C96.6667 151.625 93.625 143.5 93.625 133.25C93.625 122.667 96.7917 114.396 103.125 108.438C109.458 102.438 118.021 99.4375 128.812 99.4375C139.438 99.4375 147.771 102.438 153.812 108.438C159.854 114.396 162.875 122.292 162.875 132.125C162.875 142.75 159.75 151.146 153.5 157.312C147.292 163.479 138.771 166.562 127.938 166.562ZM128.438 114.562C123.771 114.562 120.146 116.167 117.562 119.375C114.979 122.583 113.688 127.125 113.688 133C113.688 145.292 118.646 151.438 128.562 151.438C138.021 151.438 142.75 145.125 142.75 132.5C142.75 120.542 137.979 114.562 128.438 114.562ZM206.188 166.562C195.521 166.562 187.125 163.583 181 157.625C174.917 151.625 171.875 143.5 171.875 133.25C171.875 122.667 175.042 114.396 181.375 108.438C187.708 102.438 196.271 99.4375 207.062 99.4375C217.688 99.4375 226.021 102.438 232.062 108.438C238.104 114.396 241.125 122.292 241.125 132.125C241.125 142.75 238 151.146 231.75 157.312C225.542 163.479 217.021 166.562 206.188 166.562ZM206.688 114.562C202.021 114.562 198.396 116.167 195.812 119.375C193.229 122.583 191.938 127.125 191.938 133C191.938 145.292 196.896 151.438 206.812 151.438C216.271 151.438 221 145.125 221 132.5C221 120.542 216.229 114.562 206.688 114.562ZM284.438 166.562C273.771 166.562 265.375 163.583 259.25 157.625C253.167 151.625 250.125 143.5 250.125 133.25C250.125 122.667 253.292 114.396 259.625 108.438C265.958 102.438 274.521 99.4375 285.312 99.4375C295.938 99.4375 304.271 102.438 310.312 108.438C316.354 114.396 319.375 122.292 319.375 132.125C319.375 142.75 316.25 151.146 310 157.312C303.792 163.479 295.271 166.562 284.438 166.562ZM284.938 114.562C280.271 114.562 276.646 116.167 274.062 119.375C271.479 122.583 270.188 127.125 270.188 133C270.188 145.292 275.146 151.438 285.062 151.438C294.521 151.438 299.25 145.125 299.25 132.5C299.25 120.542 294.479 114.562 284.938 114.562ZM433.812 165H414.125V128.5C414.125 119.208 410.708 114.562 403.875 114.562C400.625 114.562 397.979 115.958 395.938 118.75C393.896 121.542 392.875 125.021 392.875 129.188V165H373.125V128.125C373.125 119.083 369.771 114.562 363.062 114.562C359.688 114.562 356.979 115.896 354.938 118.562C352.938 121.229 351.938 124.854 351.938 129.438V165H332.188V101H351.938V111H352.188C354.229 107.583 357.083 104.812 360.75 102.688C364.458 100.521 368.5 99.4375 372.875 99.4375C381.917 99.4375 388.104 103.417 391.438 111.375C396.312 103.417 403.479 99.4375 412.938 99.4375C426.854 99.4375 433.812 108.021 433.812 125.188V165ZM510.375 101L484.375 170.125C478.125 186.75 468.708 195.062 456.125 195.062C451.333 195.062 447.396 194.521 444.312 193.438V177.688C446.938 179.229 449.792 180 452.875 180C457.958 180 461.5 177.604 463.5 172.812L466.875 164.875L440.875 101H462.75L474.688 139.938C475.438 142.354 476.021 145.208 476.438 148.5H476.688C477.062 146.083 477.75 143.271 478.75 140.062L490.812 101H510.375Z" fill="currentColor"/>
<path d="M514.154 79.7798C511.485 81.7066 508.687 82.4934 505.759 82.1401C502.832 81.7869 500.527 80.4448 498.844 78.1138C497.063 75.6477 496.503 73.0204 497.162 70.2319C497.83 67.3853 499.516 64.9864 502.218 63.0351C504.955 61.0595 507.758 60.2437 510.627 60.5875C513.505 60.8732 515.811 62.2153 517.542 64.6139C519.323 67.08 519.912 69.712 519.312 72.5098C518.711 75.3077 516.991 77.731 514.154 79.7798ZM538.451 97.3117L549.515 128.33L537.049 137.33L523.706 107.958L538.451 97.3117ZM579.766 112.04L566.793 121.406C567.618 100.767 562.116 82.256 550.287 65.8716C538.556 49.6224 522.594 38.4055 502.403 32.2209L515.477 22.7819C535.813 27.8857 552.078 38.8831 564.273 55.7741C576.834 73.1719 581.998 91.9272 579.766 112.04Z" fill="#FF0000"/>
</g>
<defs>
<clipPath id="clip0_195_2">
<rect width="591" height="198" fill="white"/>
</clipPath>
</defs>
</svg>
